<svg xmlns="http://www.w3.org/2000/svg" xmlns:xlink="http://www.w3.org/1999/xlink" contentStyleType="text/css" data-diagram-type="DESCRIPTION" height="471px" preserveAspectRatio="none" style="width:643px;height:471px;background:#FFFFFF;" version="1.1" viewBox="0 0 643 471" width="643px" zoomAndPan="magnify"><?plantuml 1.2026.6?><defs/><g><g class="title" data-source-line="2"><text fill="#000000" font-family="'Helvetica, Arial, sans-serif'" font-size="14" font-weight="700" lengthAdjust="spacing" textLength="206.9238" x="214.6831" y="20.7803">Promotion &#8212; Use Cases (PRM)</text></g><!--cluster Promotion--><g class="cluster" data-qualified-name="Promotion" data-source-line="10" id="ent0005"><rect fill="#FBFAFF" height="333" rx="2.5" ry="2.5" style="stroke:#B9AEE8;stroke-width:1;" width="499.71" x="129.58" y="87"/><text fill="#3A3A55" font-family="'Helvetica, Arial, sans-serif'" font-size="13" font-weight="700" lengthAdjust="spacing" textLength="64.9937" x="346.9382" y="99.0103">Promotion</text></g><!--entity U01--><g class="entity" data-qualified-name="Promotion.U01" data-source-line="11" id="ent0006"><ellipse cx="236.8525" cy="215.997" fill="#FFFFFF" rx="70.5425" ry="20.237" style="stroke:#7C5CFF;stroke-width:1;"/><text fill="#1B1B2B" font-family="'Helvetica, Arial, sans-serif'" font-size="13" lengthAdjust="spacing" textLength="70.7827" x="201.4611" y="210.8158">UC-PRM-01</text><text fill="#1B1B2B" font-family="'Helvetica, Arial, sans-serif'" font-size="13" lengthAdjust="spacing" textLength="101.8799" x="185.9126" y="223.8158">Create Promotion</text></g><!--entity U02--><g class="entity" data-qualified-name="Promotion.U02" data-source-line="12" id="ent0007"><ellipse cx="525.2111" cy="139.9962" fill="#FFFFFF" rx="88.0811" ry="20.0162" style="stroke:#7C5CFF;stroke-width:1;"/><text fill="#1B1B2B" font-family="'Helvetica, Arial, sans-serif'" font-size="13" lengthAdjust="spacing" textLength="70.7827" x="489.8198" y="134.0221">UC-PRM-02</text><text fill="#1B1B2B" font-family="'Helvetica, Arial, sans-serif'" font-size="13" lengthAdjust="spacing" textLength="133.7007" x="458.3608" y="147.0221">Validate Voucher Code</text></g><!--entity U03--><g class="entity" data-qualified-name="Promotion.U03" data-source-line="13" id="ent0008"><ellipse cx="236.854" cy="140.0048" fill="#FFFFFF" rx="91.274" ry="20.6548" style="stroke:#7C5CFF;stroke-width:1;"/><text fill="#1B1B2B" font-family="'Helvetica, Arial, sans-serif'" font-size="13" lengthAdjust="spacing" textLength="70.7827" x="201.4626" y="133.3311">UC-PRM-03</text><text fill="#1B1B2B" font-family="'Helvetica, Arial, sans-serif'" font-size="13" lengthAdjust="spacing" textLength="146.6753" x="163.5163" y="146.3311">Apply Promotion to Order</text></g><!--entity U04--><g class="entity" data-qualified-name="Promotion.U04" data-source-line="14" id="ent0009"><ellipse cx="236.8534" cy="383.9994" fill="#FFFFFF" rx="73.9434" ry="20.1294" style="stroke:#7C5CFF;stroke-width:1;"/><text fill="#1B1B2B" font-family="'Helvetica, Arial, sans-serif'" font-size="13" lengthAdjust="spacing" textLength="70.7827" x="201.462" y="378.6537">UC-PRM-04</text><text fill="#1B1B2B" font-family="'Helvetica, Arial, sans-serif'" font-size="13" lengthAdjust="spacing" textLength="107.6816" x="183.0125" y="391.6537">Launch Flash Sale</text></g><!--entity U05--><g class="entity" data-qualified-name="Promotion.U05" data-source-line="15" id="ent0010"><ellipse cx="236.8475" cy="300.0037" fill="#FFFFFF" rx="69.2775" ry="28.9237" style="stroke:#7C5CFF;stroke-width:1;"/><text fill="#1B1B2B" font-family="'Helvetica, Arial, sans-serif'" font-size="13" lengthAdjust="spacing" textLength="70.7827" x="201.4561" y="287.5854">UC-PRM-05</text><text fill="#1B1B2B" font-family="'Helvetica, Arial, sans-serif'" font-size="13" lengthAdjust="spacing" textLength="76.5908" x="198.5521" y="300.5854">Deactivate or</text><text fill="#1B1B2B" font-family="'Helvetica, Arial, sans-serif'" font-size="13" lengthAdjust="spacing" textLength="99.709" x="186.993" y="313.5854">Expire Promotion</text></g><!--entity C--><g class="entity" data-qualified-name="C" data-source-line="5" id="ent0001"><ellipse cx="44.2841" cy="49" fill="#F4F1FF" rx="8" ry="8" style="stroke:#7C5CFF;stroke-width:0.5;"/><path d="M44.2841,57 L44.2841,84 M31.2841,65 L57.2841,65 M44.2841,84 L31.2841,99 M44.2841,84 L57.2841,99" fill="none" style="stroke:#7C5CFF;stroke-width:0.5;"/><text fill="#1B1B2B" font-family="'Helvetica, Arial, sans-serif'" font-size="13" lengthAdjust="spacing" textLength="56.3481" x="16.11" y="110.5103">Customer</text></g><!--entity S--><g class="entity" data-qualified-name="S" data-source-line="6" id="ent0002"><ellipse cx="44.29" cy="163" fill="#F4F1FF" rx="8" ry="8" style="stroke:#7C5CFF;stroke-width:0.5;"/><path d="M44.29,171 L44.29,198 M31.29,179 L57.29,179 M44.29,198 L31.29,213 M44.29,198 L57.29,213" fill="none" style="stroke:#7C5CFF;stroke-width:0.5;"/><text fill="#1B1B2B" font-family="'Helvetica, Arial, sans-serif'" font-size="13" lengthAdjust="spacing" textLength="26.7363" x="30.9218" y="224.5103">Staff</text></g><!--entity A--><g class="entity" data-qualified-name="A" data-source-line="7" id="ent0003"><ellipse cx="44.2891" cy="271" fill="#F4F1FF" rx="8" ry="8" style="stroke:#7C5CFF;stroke-width:0.5;"/><path d="M44.2891,279 L44.2891,306 M31.2891,287 L57.2891,287 M44.2891,306 L31.2891,321 M44.2891,306 L57.2891,321" fill="none" style="stroke:#7C5CFF;stroke-width:0.5;"/><text fill="#1B1B2B" font-family="'Helvetica, Arial, sans-serif'" font-size="13" lengthAdjust="spacing" textLength="76.5781" x="6" y="332.5103">Administrator</text></g><!--entity T--><g class="entity" data-qualified-name="T" data-source-line="8" id="ent0004"><ellipse cx="44.289" cy="380.5" fill="#F4F1FF" rx="8" ry="8" style="stroke:#7C5CFF;stroke-width:0.5;"/><path d="M44.289,388.5 L44.289,415.5 M31.289,396.5 L57.289,396.5 M44.289,415.5 L31.289,430.5 M44.289,415.5 L57.289,430.5" fill="none" style="stroke:#7C5CFF;stroke-width:0.5;"/><text fill="#1B1B2B" font-family="'Helvetica, Arial, sans-serif'" font-size="13" lengthAdjust="spacing" textLength="58.5381" x="15.02" y="442.0103">Scheduler</text><text fill="#1B1B2B" font-family="'Helvetica, Arial, sans-serif'" font-size="13" lengthAdjust="spacing" textLength="37.5464" x="15.02" y="455.0103">(Time)</text></g><!--link S to U01--><g class="link" data-entity-1="ent0002" data-entity-2="ent0006" data-link-type="dependency" data-source-line="18" id="lnk11"><path d="M58.09,192.68 C81.12,195.7 126.0225,201.5894 167.0925,206.9794" fill="none" id="S-to-U01" style="stroke:#4A4A5A;stroke-width:1;"/><polygon fill="#4A4A5A" points="172.05,207.63,163.647,202.4929,167.0925,206.9794,162.606,210.4249,172.05,207.63" style="stroke:#4A4A5A;stroke-width:1;stroke-linejoin:miter;stroke-miterlimit:10;"/></g><!--link A to U01--><g class="link" data-entity-1="ent0003" data-entity-2="ent0006" data-link-type="dependency" data-source-line="19" id="lnk12"><path d="M82.86,274.7 C94.93,267.48 108.56,259.92 121.58,254 C141.94,244.74 160.4702,238.0796 180.7002,231.7196" fill="none" id="A-to-U01" style="stroke:#4A4A5A;stroke-width:1;"/><polygon fill="#4A4A5A" points="185.47,230.22,175.6846,229.1033,180.7002,231.7196,178.0839,236.7351,185.47,230.22" style="stroke:#4A4A5A;stroke-width:1;stroke-linejoin:miter;stroke-miterlimit:10;"/></g><!--link A to U04--><g class="link" data-entity-1="ent0003" data-entity-2="ent0009" data-link-type="dependency" data-source-line="20" id="lnk13"><path d="M82.74,324.46 C94.81,332.01 108.47,339.88 121.58,346 C141.38,355.24 159.2802,361.7703 179.1902,368.0303" fill="none" id="A-to-U04" style="stroke:#4A4A5A;stroke-width:1;"/><polygon fill="#4A4A5A" points="183.96,369.53,176.5741,363.0147,179.1902,368.0303,174.1746,370.6464,183.96,369.53" style="stroke:#4A4A5A;stroke-width:1;stroke-linejoin:miter;stroke-miterlimit:10;"/></g><!--link A to U05--><g class="link" data-entity-1="ent0003" data-entity-2="ent0010" data-link-type="dependency" data-source-line="21" id="lnk14"><path d="M82.94,299.2 C107.02,299.32 133.9601,299.4637 162.4301,299.6137" fill="none" id="A-to-U05" style="stroke:#4A4A5A;stroke-width:1;"/><polygon fill="#4A4A5A" points="167.43,299.64,158.4512,295.5926,162.4301,299.6137,158.4091,303.5925,167.43,299.64" style="stroke:#4A4A5A;stroke-width:1;stroke-linejoin:miter;stroke-miterlimit:10;"/></g><!--link C to U02--><g class="link" data-entity-1="ent0001" data-entity-2="ent0007" data-link-type="dependency" data-source-line="22" id="lnk15"><path d="M72.7,78.48 C123.34,81.42 234.89,88.88 328.13,102 C372.76,108.28 417.7366,116.9532 456.0066,124.9832" fill="none" id="C-to-U02" style="stroke:#4A4A5A;stroke-width:1;"/><polygon fill="#4A4A5A" points="460.9,126.01,452.9132,120.2471,456.0066,124.9832,451.2704,128.0766,460.9,126.01" style="stroke:#4A4A5A;stroke-width:1;stroke-linejoin:miter;stroke-miterlimit:10;"/></g><!--link C to U03--><g class="link" data-entity-1="ent0001" data-entity-2="ent0008" data-link-type="dependency" data-source-line="23" id="lnk16"><path d="M72.59,86.03 C101.51,95.59 143.1126,109.3408 179.0526,121.2208" fill="none" id="C-to-U03" style="stroke:#4A4A5A;stroke-width:1;"/><polygon fill="#4A4A5A" points="183.8,122.79,176.5101,116.1675,179.0526,121.2208,173.9993,123.7632,183.8,122.79" style="stroke:#4A4A5A;stroke-width:1;stroke-linejoin:miter;stroke-miterlimit:10;"/></g><!--link T to U04--><g class="link" data-entity-1="ent0004" data-entity-2="ent0009" data-link-type="dependency" data-source-line="24" id="lnk17"><path d="M73.82,410.36 C99.88,406.12 134.3948,400.5026 167.8448,395.0626" fill="none" id="T-to-U04" style="stroke:#4A4A5A;stroke-width:1;"/><polygon fill="#4A4A5A" points="172.78,394.26,163.2546,391.7566,167.8448,395.0626,164.5388,399.6528,172.78,394.26" style="stroke:#4A4A5A;stroke-width:1;stroke-linejoin:miter;stroke-miterlimit:10;"/></g><!--link T to U05--><g class="link" data-entity-1="ent0004" data-entity-2="ent0010" data-link-type="dependency" data-source-line="25" id="lnk18"><path d="M73.74,384.83 C87.3,371.66 104.32,356.8 121.58,346 C139.89,334.54 156.8653,326.744 176.3653,319.344" fill="none" id="T-to-U05" style="stroke:#4A4A5A;stroke-width:1;"/><polygon fill="#4A4A5A" points="181.04,317.57,171.2063,317.0234,176.3653,319.344,174.0447,324.503,181.04,317.57" style="stroke:#4A4A5A;stroke-width:1;stroke-linejoin:miter;stroke-miterlimit:10;"/></g><!--link U03 to U02--><g class="link" data-entity-1="ent0008" data-entity-2="ent0007" data-link-type="dependency" data-source-line="27" id="lnk19"><path d="M328.46,140 C363.03,140 397.35,140 431.64,140" fill="none" id="U03-to-U02" style="stroke:#4A4A5A;stroke-width:1;stroke-dasharray:7,7;"/><polygon fill="#4A4A5A" points="436.64,140,427.64,136,431.64,140,427.64,144,436.64,140" style="stroke:#4A4A5A;stroke-width:1;stroke-linejoin:miter;stroke-miterlimit:10;"/><text fill="#55556A" font-family="'Helvetica, Arial, sans-serif'" font-size="11" lengthAdjust="spacing" textLength="47.0938" x="359.13" y="136.4702">&#171;include&#187;</text></g></g></svg>